<?xml version="1.0" encoding="UTF-8"?>
<svg version="1.1" xmlns="http://www.w3.org/2000/svg" width="32" height="25">
<path d="M0 0 C10.56 0 21.12 0 32 0 C32 8.25 32 16.5 32 25 C21.44 25 10.88 25 0 25 C0 16.75 0 8.5 0 0 Z " fill="#4B759E" transform="translate(0,0)"/>
<path d="M0 0 C0.99 0 1.98 0 3 0 C3 8.25 3 16.5 3 25 C-6.57 25 -16.14 25 -26 25 C-22.4125144 22.3093858 -19.30583919 20.63762763 -15.25 18.8125 C-14.07953125 18.28269531 -12.9090625 17.75289062 -11.703125 17.20703125 C-10.81109375 16.80871094 -9.9190625 16.41039063 -9 16 C-9 17.98 -9 19.96 -9 22 C-8.34 22 -7.68 22 -7 22 C-7 20.02 -7 18.04 -7 16 C-5 15 -5 15 -1 15 C-1.04125 14.21625 -1.0825 13.4325 -1.125 12.625 C-1 10 -1 10 1 8 C-1.43717258 8.27034634 -1.43717258 8.27034634 -4 9 C-4.99 10.485 -4.99 10.485 -6 12 C-6.66 12 -7.32 12 -8 12 C-7.58388059 7.1452735 -5.54108048 5.19560921 -2 2 C-1.34 1.34 -0.68 0.68 0 0 Z " fill="#F7F8FA" transform="translate(29,0)"/>
<path d="M0 0 C-0.99 0.66 -1.98 1.32 -3 2 C-4.00648677 2.8885391 -5.00645521 3.78451268 -6 4.6875 C-6.99 5.450625 -7.98 6.21375 -9 7 C-9.99 6.67 -10.98 6.34 -12 6 C-12 9.3 -12 12.6 -12 16 C-9.834375 14.824375 -9.834375 14.824375 -7.625 13.625 C-6.81289062 13.18414062 -6.00078125 12.74328125 -5.1640625 12.2890625 C-2.89185698 11.0556107 -2.89185698 11.0556107 -1 9 C-0.67 9.99 -0.34 10.98 0 12 C-2.71595986 15.24517263 -6.27418003 16.85894696 -10 18.6875 C-10.6290625 19.00783203 -11.258125 19.32816406 -11.90625 19.65820312 C-14.79443893 21.09311902 -16.73246861 22 -20 22 C-20 16.72 -20 11.44 -20 6 C-16.94010417 4.73046875 -13.88020833 3.4609375 -10.8203125 2.19140625 C-6.7671169 0.47918373 -4.4693668 -0.09716015 0 0 Z " fill="#094171" transform="translate(20,3)"/>
<path d="M0 0 C8.25 0 16.5 0 25 0 C21.89019328 3.10980672 21.46085916 3.36273441 17.4375 3.9375 C12.64413997 4.76102882 8.4835478 6.26504415 4.03125 8.1953125 C2 9 2 9 0 9 C0 6.03 0 3.06 0 0 Z " fill="#F6F9FB" transform="translate(0,0)"/>
<path d="M0 0 C0.804375 0.433125 0.804375 0.433125 1.625 0.875 C4.35280484 2.16711808 7.12612718 3.08558592 10 4 C9 7 9 7 6.71484375 8.38671875 C5.79832031 8.81597656 4.88179687 9.24523438 3.9375 9.6875 C2.55884766 10.34298828 2.55884766 10.34298828 1.15234375 11.01171875 C0.44207031 11.33785156 -0.26820313 11.66398437 -1 12 C-1.02687279 10.18757948 -1.04633715 8.37504767 -1.0625 6.5625 C-1.07410156 5.55316406 -1.08570313 4.54382813 -1.09765625 3.50390625 C-1 1 -1 1 0 0 Z " fill="#EEF2F5" transform="translate(8,8)"/>
<path d="M0 0 C-0.309375 0.5775 -0.61875 1.155 -0.9375 1.75 C-1.92583364 3.84294184 -2.5168613 5.74535275 -3 8 C-4.65 8 -6.3 8 -8 8 C-8.33 9.98 -8.66 11.96 -9 14 C-9.66 14 -10.32 14 -11 14 C-10.67 10.7 -10.34 7.4 -10 4 C-9.34 4 -8.68 4 -8 4 C-7.71125 3.360625 -7.4225 2.72125 -7.125 2.0625 C-5.18025038 -1.5028743 -3.54277596 -1.06283279 0 0 Z " fill="#204D77" transform="translate(31,8)"/>
<path d="M0 0 C1.65 0 3.3 0 5 0 C5.08114106 1.77007714 5.13925505 3.54122098 5.1875 5.3125 C5.22230469 6.29863281 5.25710937 7.28476562 5.29296875 8.30078125 C5 11 5 11 3.61328125 12.79296875 C2 14 2 14 0 15 C0 10.05 0 5.1 0 0 Z " fill="#F0F4F8" transform="translate(0,10)"/>
<path d="M0 0 C0.99 0 1.98 0 3 0 C3 2.97 3 5.94 3 9 C2.2575 8.7525 1.515 8.505 0.75 8.25 C-0.1575 8.1675 -1.065 8.085 -2 8 C-4.2085766 9.87508162 -4.2085766 9.87508162 -6 12 C-6.66 12 -7.32 12 -8 12 C-7.58388059 7.1452735 -5.54108048 5.19560921 -2 2 C-1.34 1.34 -0.68 0.68 0 0 Z " fill="#DEE5EC" transform="translate(29,0)"/>
<path d="M0 0 C1.2065625 0.0309375 1.2065625 0.0309375 2.4375 0.0625 C2.1075 2.0425 1.7775 4.0225 1.4375 6.0625 C-0.8725 5.7325 -3.1825 5.4025 -5.5625 5.0625 C-3.15007962 0.07683121 -3.15007962 0.07683121 0 0 Z " fill="#ECF0F5" transform="translate(17.5625,4.9375)"/>
<path d="M0 0 C0.598125 0.20625 1.19625 0.4125 1.8125 0.625 C-0.1675 3.595 -0.1675 3.595 -2.1875 6.625 C-3.1775 6.295 -4.1675 5.965 -5.1875 5.625 C-4.5275 4.635 -3.8675 3.645 -3.1875 2.625 C-3.8475 2.295 -4.5075 1.965 -5.1875 1.625 C-2.1875 -0.375 -2.1875 -0.375 0 0 Z " fill="#477CA8" transform="translate(29.1875,7.375)"/>
<path d="M0 0 C0 2.97 0 5.94 0 9 C-0.33 9 -0.66 9 -1 9 C-1.33 7.35 -1.66 5.7 -2 4 C-3.32 3.67 -4.64 3.34 -6 3 C-2.25 0 -2.25 0 0 0 Z " fill="#115188" transform="translate(6,7)"/>
<path d="M0 0 C0 3.86695678 -1.41909971 6.5088452 -3 10 C-3.33 10 -3.66 10 -4 10 C-4.25 7.25 -4.25 7.25 -4 4 C-2 1.625 -2 1.625 0 0 Z " fill="#083C6B" transform="translate(24,2)"/>
</svg>
